<?xml version="1.0" encoding="UTF-8" standalone="no" ?>
<!DOCTYPE svg PUBLIC "-//W3C//DTD SVG 1.1//EN" "http://www.w3.org/Graphics/SVG/1.1/DTD/svg11.dtd">
<svg xmlns="http://www.w3.org/2000/svg" xmlns:xlink="http://www.w3.org/1999/xlink" version="1.1" width="1920" height="913" viewBox="0 0 1920 913" xml:space="preserve">
<desc>Created with Fabric.js 5.2.4</desc>
<defs>
</defs>
<rect x="0" y="0" width="100%" height="100%" fill="transparent"></rect>
<g transform="matrix(Infinity NaN NaN Infinity 0 0)" id="652e020b-6681-4da1-8dca-dc133ebc96c0"  >
</g>
<g transform="matrix(1 0 0 1 960 456.5)" id="34a93030-365b-4837-b1e3-8c8908055fb0"  >
<rect style="stroke: none; stroke-width: 1; stroke-dasharray: none; stroke-linecap: butt; stroke-dashoffset: 0; stroke-linejoin: miter; stroke-miterlimit: 4; fill: rgb(255,255,255); fill-rule: nonzero; opacity: 1; visibility: hidden;" vector-effect="non-scaling-stroke"  x="-960" y="-456.5" rx="0" ry="0" width="1920" height="913" />
</g>
<g transform="matrix(1 0 0 1 963.39 460.95)"  >
<path style="stroke: rgb(0,0,0); stroke-width: 0; stroke-dasharray: none; stroke-linecap: butt; stroke-dashoffset: 0; stroke-linejoin: miter; stroke-miterlimit: 4; fill: rgb(211,246,251); fill-rule: nonzero; opacity: 1;" vector-effect="non-scaling-stroke"  transform=" translate(-960, -456.5)" d="M 1920 913 C 1920 913 1920 190.512 1920 96.999 C 1873.26 87.743 1817.52 109.59 1768.95 100.45 C 1720.82 91.394 1678.56 49.725 1628.44 42.415 C 1579.8 35.32 1525 62.775 1474.67 57.405 C 1425.65 52.177 1379.58 13.91 1329.13 10.392 C 1279.84 6.954 1227.72 38.331 1177.22 36.596 C 1127.76 34.897 1078.47 0 1028 0 C 977.532 0 928.254 34.897 878.792 36.596 C 828.3 38.331 776.181 6.953 726.895 10.39 C 676.446 13.908 630.37 52.175 581.353 57.404 C 531.023 62.772 476.226 35.318 427.587 42.411 C 377.46 49.722 335.198 91.391 287.067 100.447 C 237.247 109.821 179.877 86.977 132.416 98.126 C 83.399 109.64 46.108 154.225 0 167.999 C 0 201.082 0 913 0 913 L 1920 913 Z" stroke-linecap="round" />
</g>
</svg>